<?xml version="1.0" encoding="UTF-8" standalone="no"?>
<svg
   version="1.2"
   viewBox="0 0 1626 1557"
   width="1626"
   height="1557"
   id="svg1"
   xml:space="preserve"
   xmlns="http://www.w3.org/2000/svg"
   xmlns:svg="http://www.w3.org/2000/svg"><defs
     id="defs1" /><style
     id="style1" /><path
     style="fill:#B35637"
     d="m 213.46721,1545.7549 c -11.63148,-1.1839 -18.3394,-2.5813 -38,-7.9162 -18.48418,-5.0157 -36.95348,-15.1345 -48.72602,-26.6955 -7.81326,-7.6728 -10.5252,-11.7965 -14.22865,-21.6357 -3.68659,-9.7944 -3.5058,-23.89 0.43886,-34.2167 8.92483,-23.364 28.25393,-43.7872 60.78699,-64.2277 7.08782,-4.4532 26.94787,-14.7376 33.72882,-17.4661 2.2,-0.8853 8.275,-3.388 13.5,-5.5617 14.07853,-5.857 25.69189,-9.8224 43,-14.6826 20.71615,-5.8172 33.50876,-8.6636 65.5,-14.5743 10.59831,-1.9582 42.5505,-5.5756 56.61379,-6.4096 4.73759,-0.2809 10.36259,-0.7494 12.5,-1.041 7.36647,-1.005 43.99559,-2.5084 85.38621,-3.5045 67.36143,-1.6212 91.34121,-3.1952 124,-8.1394 25.77782,-3.9024 65.54778,-15.3132 86,-24.6751 18.1457,-8.3061 23.38736,-10.8822 32.35365,-15.9008 13.06305,-7.3117 30.12537,-18.8749 39.64635,-26.8685 8.3944,-7.0478 22.2857,-21.1214 29.0432,-29.4244 4.3294,-5.3196 16.9568,-25.658 16.9568,-27.3117 0,-0.4523 0.8534,-2.7101 1.8964,-5.0174 4.1169,-9.1071 5.0509,-12.0251 7.6433,-23.8769 2.1576,-9.8637 2.698,-14.9688 2.7318,-25.8072 0.04,-12.7942 -0.3977,-16.1727 -3.9524,-30.5111 -6.3233,-25.5059 -17.6605,-44.6006 -39.3895,-66.3422 -11.8718,-11.8785 -21.24281,-19.6879 -31.9296,-26.6087 -20.61334,-13.3492 -35.44936,-20.90113 -59.44391,-30.25833 -18.21343,-7.1028 -21.86993,-8.3102 -37.05609,-12.2366 -9.94147,-2.5703 -18.74023,-5.8249 -19.62702,-7.2597 -2.09167,-3.3844 5.84099,-4.9936 14.011,-2.8423 1.98881,0.5237 7.3962,1.914 12.01643,3.0896 23.86404,6.0723 60.07378,20.7684 80.09959,32.50943 6.66492,3.9076 26.1949,17.0256 28.5,19.1431 1.1,1.0104 3.2536,2.8076 4.7858,3.9936 5.1315,3.972 18.155,16.5339 24.0594,23.2064 17.3312,19.5863 31.146,46.1153 35.4656,68.1057 3.1316,15.9428 3.3769,19.8618 2.1741,34.7402 -0.6563,8.1179 -1.5964,15.5178 -2.0891,16.4441 -0.4927,0.9263 -0.8958,2.5196 -0.8958,3.5405 0,3.4378 -6.0054,20.4202 -10.5395,29.804 -4.4253,9.1587 -13.4663,23.5995 -19.0773,30.4712 -10.1471,12.4271 -28.6116,29.6175 -42.3832,39.4588 -14.45135,10.327 -50.64951,30.2637 -61,33.5966 -1.375,0.4428 -5.65,2.1214 -9.5,3.7303 -14.22507,5.9446 -37.87748,13.3139 -52,16.2016 -3.3,0.6747 -7.125,1.5834 -8.5,2.0192 -1.375,0.4358 -5.875,1.3132 -10,1.9498 -4.125,0.6366 -10.425,1.7754 -14,2.5306 -3.575,0.7552 -11.9,1.8726 -18.5,2.483 -6.6,0.6104 -16.05,1.5497 -21,2.0872 -12.82558,1.3929 -22.71723,1.7431 -69.5,2.4607 -22.825,0.3502 -45.0882,1.0519 -49.47377,1.5594 -4.38557,0.5076 -13.16057,0.9261 -19.5,0.9301 -21.73106,0.014 -69.55544,4.28 -96.52623,8.611 -25.34619,4.0702 -62.50845,13.0836 -82,19.8886 -10.55591,3.6853 -23.56262,8.5198 -28.51344,10.5982 -9.96054,4.1814 -35.33957,17.4044 -43.98656,22.9178 -17.43925,11.1195 -34.92072,26.7343 -42.87759,38.2992 -9.67111,14.0565 -14.83578,32.1855 -12.10506,42.4912 4.37928,16.5272 15.91221,28.461 37.87913,39.1957 19.76855,9.6604 41.52936,15.1135 74.10352,18.57 19.91702,2.1134 22.95839,3.5342 13.38398,6.2525 -4.38174,1.244 -20.31449,1.3103 -31.88398,0.1326 z m 130.9128,-382.463 c -21.70542,-6.4211 -62.33142,-26.2882 -88.4128,-43.236 -31.62024,-20.547 -55.94247,-41.0274 -75.90375,-63.9144 -13.16324,-15.0926 -15.02698,-17.4382 -23.71809,-29.8507 -19.71596,-28.15783 -37.95574,-66.57633 -49.85044,-105.00003 -2.04314,-6.6 -4.1048,-12.9944 -4.58148,-14.2097 -0.47667,-1.2154 -1.16716,-4.4749 -1.53441,-7.2434 -0.718944,-5.4196 0.44194,-8.0469 3.55562,-8.0469 3.05663,0 5.15301,3.6409 8.16466,14.1799 1.62201,5.676 3.3484,11.2201 3.83641,12.3201 0.488,1.1 1.88538,5.15 3.10529,9 4.57389,14.4352 12.541,33.5385 20.85271,50 32.82974,65.02013 80.1864,111.73903 154.6595,152.57703 15.26443,8.3704 23.92243,12.6731 44.91398,22.3206 13.71396,6.3029 21.5,10.7361 21.5,12.2418 0,2.1045 -7.32482,1.6018 -16.5872,-1.1383 z m 107.5872,-240.10383 c -18.80409,-2.0853 -23.8797,-2.832 -33,-4.8551 -19.87766,-4.4093 -36.72032,-12.1738 -53.124,-24.4903 -19.25,-14.4536 -32.21439,-32.3062 -37.92959,-52.2309 -2.90873,-10.1406 -3.63256,-27.0146 -1.5737,-36.6866 3.45899,-16.24947 14.49345,-32.51635 28.00504,-41.28474 4.75675,-3.08691 5.51962,-3.92944 4,-4.41768 -1.03277,-0.33181 -5.14587,-2.20425 -9.14025,-4.16099 -9.36584,-4.58808 -17.226,-12.43091 -21.80765,-21.7596 -14.292,-29.09986 3.23663,-64.9215 34.62439,-70.75867 l 5.98827,-1.11364 -2.8784,-3.06954 c -5.04777,-5.38296 -10.84117,-13.85314 -14.53348,-21.24854 -5.59899,-11.21431 -7.74412,-20.06671 -8.31674,-34.321 -0.66479,-16.54875 1.59944,-27.28565 8.82713,-41.85776 8.76378,-17.66912 25.42844,-33.15868 46.9367,-43.62697 18.4256,-8.96793 41.81782,-15.10614 66.80407,-17.52965 7.68519,-0.74541 29.53965,-0.59904 79.11821,0.52988 37.675,0.85788 71.3125,1.80366 74.75,2.10174 l 6.25,0.54195 v 17.54859 17.54859 l -14.25,-0.73363 c -8.29847,-0.42723 -17.34478,-1.5249 -21.65997,-2.62819 -4.07548,-1.042 -7.59744,-1.89455 -7.82659,-1.89455 -0.22915,0 1.75533,1.62998 4.40996,3.62218 15.96887,11.98403 26.33797,27.96827 30.41002,46.87782 2.08192,9.66792 1.64521,28.46794 -0.90133,38.80135 -8.15754,33.10192 -33.13773,57.6755 -72.18209,71.00716 -37.86255,12.92814 -85.7628,13.08417 -124.93227,0.40697 -8.77281,-2.83932 -10.7309,-3.10154 -23.56773,-3.15604 -13.72441,-0.0583 -14.10772,-3.8e-4 -19.47186,2.94056 -9.04514,4.9591 -12.97073,13.00641 -10.94727,22.44149 1.36396,6.35995 6.0198,12.5741 11.65156,15.55134 4.21834,2.23004 4.44297,2.23934 67.5,2.79506 49.05977,0.43236 66.4115,0.92227 77.26757,2.18154 55.17414,6.40006 89.42934,22.58767 105.9934,50.08816 11.4834,19.06531 11.91085,49.10821 1.02708,72.18651 -15.15413,32.1335 -49.13067,53.1967 -100.52048,62.3161 -10.71498,1.9014 -16.71266,2.2544 -42,2.4717 -16.225,0.1394 -31.075,0.079 -33,-0.1346 z m 49.77844,-38.926 c 42.82268,-4.4467 70.71755,-18.2875 81.56627,-40.4713 4.47016,-9.1407 6.05318,-17.1241 5.33284,-26.8944 -1.3261,-17.9865 -14.26162,-31.35509 -37.23255,-38.47895 -22.40422,-6.94811 -42.58733,-8.61509 -104.38684,-8.62163 l -47.44183,-0.005 -6.98302,4.14854 c -16.55689,9.83627 -24.63331,23.32415 -24.63331,41.13844 0,19.5073 9.91313,36.1076 29.75236,49.8224 23.93147,16.5439 62.33302,23.6914 104.02608,19.3619 z m 1.72156,-221.08727 c 11.63478,-1.92632 26.78143,-7.17508 36.11307,-12.51423 13.48816,-7.71733 23.48866,-18.60805 28.50298,-31.04024 3.01597,-7.47759 3.70806,-22.9913 1.41679,-31.75816 -7.30597,-27.95403 -35.32403,-46.04108 -77.6434,-50.12267 -23.11294,-2.22918 -47.74743,1.99963 -67.57347,11.5998 -9.42642,4.56448 -12.43101,6.63629 -19.11892,13.18351 -13.15772,12.8809 -18.57314,27.49968 -16.3384,44.10508 1.77349,13.17806 6.41191,23.07674 15.36485,32.78952 19.02165,20.63606 59.55008,30.33473 99.2765,23.75739 z M 78.467196,854.79077 c -1.1,-0.4727 -4.32817,-0.8911 -7.17371,-0.9297 -2.84554,-0.039 -7.57054,-0.5496 -10.5,-1.1355 -2.92946,-0.5858 -7.80129,-1.5318 -10.82629,-2.102 -8.26892,-1.5589 -29.56715,-8.6029 -36.86403,-12.1922 -3.5423595,-1.7424 -7.3608695,-4.4006 -8.4855895,-5.9071 -3.58472,-4.8013 -1.9461,-5.2138 21.4774395,-5.4065 11.56562,-0.095 21.6653,-0.4174 22.44374,-0.7161 1.01827,-0.3907 -0.56904,-3.0073 -5.65805,-9.327 -9.46831,-11.758 -17.19399,-28.03373 -21.73242,-45.7839 -0.56251,-2.2 -1.47733,-5.8 -2.03295,-8 -0.55561,-2.2 -1.32113,-9.01616 -1.70115,-15.14702 -0.68752,-11.09171 -0.67868,-11.15506 1.78036,-12.76628 2.22041,-1.45487 9.86213,-1.61934 75.27149,-1.62003 82.215214,-8.7e-4 77.501174,-0.44832 77.501174,7.35639 0,5.45524 1.29506,6.67694 7.07787,6.67694 12.46585,0 20.92213,8.53028 20.92213,21.10523 0,5.01909 -0.65216,7.52415 -3.45984,13.28984 -3.96546,8.14327 -8.29784,13.0256 -16.3676,18.44533 -7.63088,5.125 -12.4243,6.868 -21.24863,7.7265 -6.68521,0.6505 -7.7408,1.0564 -10.60833,4.0794 -6.29946,6.6409 -10.47452,12.2876 -9.84202,13.311 0.41464,0.6709 8.24671,1.0427 21.96299,1.0427 17.30812,0 21.54274,0.2702 22.51038,1.4361 3.68955,4.4456 -8.18445,12.4163 -26.95081,18.0913 -14.858,4.4931 -22.81591,5.9124 -44.49614,7.9357 -17.687734,1.6507 -29.944024,1.8501 -33.000014,0.5369 z m 89.721494,-59.37755 c 9.636,-4.34026 18.882,-14.32669 20.3095,-21.9359 1.0898,-5.80914 -0.19653,-10.4678 -3.32583,-12.04498 -3.3608,-1.69386 -10.5129,-2.84444 -12.63037,-2.03189 -0.96741,0.37123 -2.77666,4.55614 -4.64713,10.74911 -1.68464,5.57767 -3.46731,11.04121 -3.96149,12.14121 -4.22598,9.40653 -5.86827,13.84937 -5.39969,14.60756 0.92636,1.49884 4.12112,1.00747 9.65501,-1.48511 z m 1030.27841,-2.02029 c -10.5875,-1.75023 -19.1866,-4.02331 -27.327,-7.22369 -35.2826,-13.87112 -58.8535,-43.23432 -68.3406,-85.13459 -2.1341,-9.42555 -2.2246,-12.14511 -2.7693,-83.24388 l -0.5631,-73.5 -29.75,-0.26488 -29.75,-0.26488 v -18.98512 -18.98512 h 30 30 v -66.5 -66.5 h 23 23 v 66.5 66.5 h 57.5 57.5 v 19 19 h -57.5 -57.5 v 65.27624 c 0,38.46277 0.4198,68.62362 1.0219,73.4253 1.9443,15.50674 6.5104,29.79875 13.1235,41.07725 5.1084,8.7122 18.0054,21.1291 26.3546,25.37347 12.0027,6.1016 18.0062,7.35184 35,7.28871 13.6696,-0.0508 15.7539,-0.30477 23.5,-2.86371 4.675,-1.5444 10.2312,-3.68747 12.347,-4.76239 2.1157,-1.07491 4.0394,-1.76185 4.2747,-1.52651 0.7127,0.71263 11.3783,33.04276 11.3783,34.49028 0,1.96628 -10.9432,6.59074 -23,9.71951 -8.8993,2.3094 -13.0153,2.77826 -27,3.07563 -10.623,0.22589 -19.3494,-0.12018 -24.5,-0.97162 z m -408.99989,-0.64945 c -37.77736,-3.19972 -67.97628,-16.09834 -82.38908,-35.19018 -15.75551,-20.87046 -19.94561,-57.52098 -9.51178,-83.19879 5.40624,-13.30484 18.82442,-28.70046 31.74983,-36.42881 7.55699,-4.51847 22.35153,-10.52705 32.15103,-13.05765 18.7098,-4.83157 23.3562,-5.06511 100.898,-5.07138 l 72.898,-0.006 -0.5757,-8.75 c -2.7448,-41.71875 -40.902,-70.79664 -95.7203,-72.94416 -37.4885,-1.46863 -73.289,11.67234 -90.24741,33.12636 -2.20322,2.78729 -4.28637,5.0678 -4.62923,5.0678 -1.63442,0 -35.12223,-18.12828 -35.12276,-19.01335 -10e-4,-2.31951 7.84744,-12.52491 15.41909,-20.04862 19.80359,-19.67821 46.03911,-31.83202 81.08031,-37.56107 4.7474,-0.77618 16.3348,-1.30595 28.5,-1.303 16.9704,0.004 22.5661,0.39029 32.5,2.24296 16.3332,3.04614 27.507,6.34978 40.7928,12.06083 37.488,16.1147 61.1997,41.96979 70.7528,77.14851 2.2809,8.39937 2.3075,9.1847 3.0256,89.47374 0.3985,44.55 1.0061,84.6 1.3503,89 0.3442,4.4 0.7975,10.5875 1.0074,13.75 l 0.3814,5.75 h -21.7692 -21.7693 l -0.5522,-4.25 c -0.3037,-2.3375 -1.3555,-12.30014 -2.3373,-22.1392 -1.6647,-16.68247 -1.8896,-17.74056 -3.3337,-15.68567 -13.087,18.62188 -30.6827,30.85689 -56.0486,38.973 -24.6322,7.88136 -56.4046,10.77303 -88.5,8.05458 z m 44.5,-38.01047 c 50.3219,-4.59867 85.9084,-26.10421 97.3403,-58.82449 2.7125,-7.76361 3.0553,-10.13344 3.4581,-23.91023 l 0.4471,-15.29248 -73.8728,0.30881 -73.8727,0.30882 -8.9628,2.79094 c -18.80175,5.85475 -30.34972,14.45626 -36.68486,27.32476 -3.23956,6.58048 -3.35234,7.214 -3.35234,18.8306 0,11.0699 0.2215,12.49577 2.7995,18.02103 10.89631,23.35334 45.5922,34.74724 92.7005,30.44224 z m 612.60409,37.99486 c -19.8299,-2.30068 -37.4151,-7.31915 -54.1042,-15.44027 -18.9773,-9.2346 -31.1766,-18.35305 -45.1003,-33.71059 -33.5327,-36.98565 -44.9646,-94.2642 -28.7974,-144.28624 7.6213,-23.58035 22.307,-46.26007 39.9305,-61.66618 44.7851,-39.15018 114.4644,-49.72152 173.9091,-26.3845 44.1817,17.34502 76.5196,55.22834 86.5799,101.42702 4.6473,21.34138 4.5915,46.09698 -0.1533,67.99698 -11.8614,54.74707 -55.2204,96.56289 -113.0018,108.98007 -18.2548,3.92295 -41.5715,5.13623 -59.2625,3.08371 z m 41.7984,-39.44806 c 21.5133,-3.75161 39.5116,-12.6983 54.6593,-27.17036 20.1571,-19.25801 31.8666,-47.81368 31.9101,-77.81868 0.09,-61.69301 -38.0596,-105.35588 -96.472,-110.41537 -21.6936,-1.87903 -44.2565,1.87384 -61.7529,10.2713 -27.6587,13.27485 -46.0413,36.03932 -54.5151,67.50982 -2.3457,8.71165 -2.6008,11.45375 -2.6631,28.63425 -0.077,21.34319 1.1841,29.59629 6.8197,44.61638 8.908,23.74194 26.292,43.20112 48.6024,54.40423 7.9286,3.98134 20.9192,8.29901 29.8057,9.90647 10.5145,1.90195 32.8724,1.93372 43.6059,0.062 z M 118.56453,708.5853 c -2.33627,-1.30744 -1.64344,-5.03114 3.39766,-18.26112 13.25285,-34.78108 35.84282,-77.92891 53.748,-102.66103 3.16636,-4.37364 6.75805,-9.33368 7.98154,-11.02231 1.22349,-1.68863 4.6266,-5.8332 7.56247,-9.21015 2.93587,-3.37696 5.98483,-7.07941 6.77548,-8.22767 1.74988,-2.5414 10.61492,-12.86167 17.50728,-20.38119 2.78836,-3.04208 6.83836,-7.54512 9,-10.00675 2.16163,-2.46163 7.75525,-8.64467 12.43025,-13.74009 15.51514,-16.91041 17.8021,-19.73065 26.21292,-32.3253 12.1718,-18.22648 17.21599,-32.69281 17.24558,-49.45892 0.0178,-10.08861 -1.97762,-18.78267 -6.18553,-26.95043 -3.37138,-6.544 -13.61329,-20.85602 -21.01103,-29.36077 -16.38311,-18.83471 -26.72327,-33.07479 -36.44363,-50.1888 -12.55713,-22.10853 -18.09383,-37.74282 -25.99673,-73.40846 -0.5982,-2.69965 -1.08425,-12.59965 -1.08012,-22 0.0111,-25.22426 2.56495,-38.59533 12.98852,-68.00301 3.07547,-8.67675 3.4362,-10.66995 2.89562,-16 -3.44851,-34.0023 -4.6168,-55.739538 -4.70953,-87.626078 -0.0605,-20.80884 0.32088,-36.53556 0.96267,-39.69509 2.15736,-10.6206002 7.70515,-17.2546802 14.4368,-17.2636202 12.30462,-0.0163 52.12886,30.4848702 82.7422,63.3718702 9.15187,9.83159 17.38016,18.28995 18.28508,18.79637 1.74944,0.97904 1.90493,0.95472 25.65718,-4.01293 26.00522,-5.43886 58.42927,-7.70482 74.3847,-5.1984 3.36341,0.52836 10.93858,1.67232 16.83369,2.54213 5.89512,0.86982 17.37012,3.16526 25.5,5.10099 23.78163,5.66242 19.33309,6.98178 37.28161,-11.05709 29.3348,-29.48246 61.53479,-55.01816 81.22884,-64.4172602 8.20685,-3.91677 12.87635,-4.04929 17.53287,-0.49759 6.31402,4.8159402 6.73781,6.9939202 6.52295,33.5239602 -0.2006,24.77016 -2.0544,46.48091 -6.17719,72.344208 -0.52605,3.3 -1.43257,9.375 -2.0145,13.5 -1.04407,7.40081 -1.71303,10.97707 -4.1594,22.23613 -1.35539,6.23797 -1.65807,4.7791 4.93042,23.76387 6.30306,18.16235 9.13601,36.22511 9.13601,58.25091 0,20.61656 -2.59556,37.48802 -9.65353,62.74909 -6.52382,23.34929 -19.31808,50.86977 -30.28253,65.13775 -4.0414,5.25905 -10.56273,9.99182 -12.65929,9.18729 -2.85288,-1.09475 -1.27315,-5.88886 5.52,-16.7518 6.72752,-10.75799 8.90204,-15.01199 14.60581,-28.57324 20.34194,-48.36484 25.11908,-92.28395 14.79118,-135.98415 -0.84284,-3.56628 -3.13794,-10.99128 -5.10021,-16.5 -1.96227,-5.50872 -3.57478,-11.59085 -3.58335,-13.51585 -0.009,-1.925 1.36984,-10.475 3.06313,-19 6.06933,-30.5566 9.39433,-55.661068 11.31852,-85.457218 1.09028,-16.88298 0.72961,-27.10577 -1.17458,-33.29277 -1.20564,-3.91731 -4.03985,-4.25235 -10.63836,-1.25759 -5.82578,2.64406 -23.82907,14.85683 -32.97438,22.36861 -4.11069,3.37644 -9.55712,7.66445 -12.10319,9.52891 -2.54607,1.86446 -15.02524,13.90196 -27.73147,26.75 -12.70624,12.84804 -23.77329,23.36006 -24.59345,23.36006 -0.82016,0 -3.92415,-0.83062 -6.89775,-1.84581 -2.97361,-1.0152 -9.45655,-2.83657 -14.40655,-4.04749 -4.95,-1.21092 -10.575,-2.62981 -12.5,-3.15309 -3.50334,-0.95233 -14.0483,-2.68875 -30,-4.94004 -9.36527,-1.32173 -41.01564,-0.8429 -52,0.78671 -16.27188,2.41404 -24.46639,4.02472 -39.97707,7.85774 -5.21239,1.28809 -10.44043,2.34198 -11.61787,2.34198 -1.47744,0 -5.02637,-3.33099 -11.45328,-10.74999 -15.99912,-18.46881 -42.40675,-43.86158 -57.20571,-55.00723 -14.80024,-11.14663 -27.5492,-18.63929 -30.06961,-17.67212 -1.69585,0.65076 -2.85471,3.70911 -4.71451,12.44207 -2.72466,12.794 0.169,82.822378 5.03626,121.880638 1.03098,8.27327 0.99727,8.52367 -2.35581,17.5 -1.87096,5.00865 -3.95808,11.13163 -4.63805,13.60663 -0.67997,2.475 -1.59529,5.625 -2.03404,7 -0.43876,1.375 -1.53788,7 -2.44249,12.5 -0.90461,5.5 -2.06844,12.43755 -2.58628,15.41678 -2.81316,16.18442 0.94774,46.48284 8.82347,71.08322 9.4625,29.55677 27.12951,59.41131 52.06911,87.98877 11.62511,13.32084 21.79384,28.49012 24.4753,36.51123 0.36773,1.1 1.34171,4.025 2.16441,6.5 1.68774,5.07741 2.12101,26.77495 0.63103,31.60078 -0.49233,1.59457 -1.88766,6.27422 -3.10074,10.39922 -3.08124,10.47752 -10.93929,25.17066 -18.70776,34.98014 -0.66199,0.83592 -3.36199,4.24483 -6,7.57535 -5.84213,7.37578 -14.82776,17.59024 -26.79636,30.46089 -8.61366,9.26284 -17.85158,19.73139 -31.75359,35.98362 -7.4535,8.71355 -21.72787,27.83598 -27.24626,36.5 -9.03092,14.1788 -21.27639,36.12065 -27.62532,49.5 -7.36805,15.52696 -9.87483,20.97605 -9.87483,21.46528 0,0.45109 -5.7468,13.527 -10.78289,24.53472 -1.98403,4.33662 -5.9019,9.66506 -7.57994,10.30899 -0.69189,0.2655 -2.05982,0.034 -3.03985,-0.51446 z M 1442.2248,449.91368 c 0.2699,-1.03239 14.0955,-19.03239 30.7234,-40 l 30.2326,-38.12291 h 27.4657 27.4658 l -1.8226,2.30949 c -1.0024,1.27022 -17.0698,19.27022 -35.7053,40 l -33.8827,37.69051 h -22.4839 c -21.5008,0 -22.4625,-0.0821 -21.993,-1.87709 z"
     id="path1" /></svg>
